<mxfile host="Electron" agent="Mozilla/5.0 (Windows NT 10.0; Win64; x64) AppleWebKit/537.36 (KHTML, like Gecko) draw.io/24.7.8 Chrome/128.0.6613.36 Electron/32.0.1 Safari/537.36" version="24.7.8" pages="2">
  <diagram name="Pagina-1" id="QXhoCBBYppxKOtwhkQxx">
    <mxGraphModel dx="2684" dy="1564" grid="1" gridSize="10" guides="1" tooltips="1" connect="1" arrows="1" fold="1" page="0" pageScale="1" pageWidth="827" pageHeight="1169" math="0" shadow="0">
      <root>
        <mxCell id="0" />
        <mxCell id="1" parent="0" />
        <mxCell id="BdUQby077qZUEzd6wH9l-31" style="edgeStyle=orthogonalEdgeStyle;rounded=0;orthogonalLoop=1;jettySize=auto;html=1;entryX=1;entryY=0.5;entryDx=0;entryDy=0;" edge="1" parent="1" source="ubnaHx1fvpcuL760ZOfJ-1" target="BdUQby077qZUEzd6wH9l-29">
          <mxGeometry relative="1" as="geometry" />
        </mxCell>
        <mxCell id="BdUQby077qZUEzd6wH9l-33" style="edgeStyle=orthogonalEdgeStyle;rounded=0;orthogonalLoop=1;jettySize=auto;html=1;" edge="1" parent="1" source="ubnaHx1fvpcuL760ZOfJ-1">
          <mxGeometry relative="1" as="geometry">
            <mxPoint x="410" y="35" as="targetPoint" />
          </mxGeometry>
        </mxCell>
        <mxCell id="BdUQby077qZUEzd6wH9l-37" style="edgeStyle=orthogonalEdgeStyle;rounded=0;orthogonalLoop=1;jettySize=auto;html=1;entryX=0.5;entryY=0;entryDx=0;entryDy=0;" edge="1" parent="1" source="ubnaHx1fvpcuL760ZOfJ-1" target="BdUQby077qZUEzd6wH9l-35">
          <mxGeometry relative="1" as="geometry" />
        </mxCell>
        <mxCell id="BdUQby077qZUEzd6wH9l-44" style="edgeStyle=orthogonalEdgeStyle;rounded=0;orthogonalLoop=1;jettySize=auto;html=1;entryX=0;entryY=0.5;entryDx=0;entryDy=0;" edge="1" parent="1" source="ubnaHx1fvpcuL760ZOfJ-1" target="BdUQby077qZUEzd6wH9l-41">
          <mxGeometry relative="1" as="geometry" />
        </mxCell>
        <mxCell id="BdUQby077qZUEzd6wH9l-45" style="edgeStyle=orthogonalEdgeStyle;rounded=0;orthogonalLoop=1;jettySize=auto;html=1;" edge="1" parent="1" source="ubnaHx1fvpcuL760ZOfJ-1">
          <mxGeometry relative="1" as="geometry">
            <mxPoint x="820" y="35" as="targetPoint" />
          </mxGeometry>
        </mxCell>
        <mxCell id="ubnaHx1fvpcuL760ZOfJ-1" value="Classe" style="rounded=0;whiteSpace=wrap;html=1;" vertex="1" parent="1">
          <mxGeometry x="547.5" y="5" width="120" height="60" as="geometry" />
        </mxCell>
        <mxCell id="BdUQby077qZUEzd6wH9l-43" style="edgeStyle=orthogonalEdgeStyle;rounded=0;orthogonalLoop=1;jettySize=auto;html=1;entryX=1;entryY=0.5;entryDx=0;entryDy=0;" edge="1" parent="1" source="ubnaHx1fvpcuL760ZOfJ-2" target="BdUQby077qZUEzd6wH9l-41">
          <mxGeometry relative="1" as="geometry" />
        </mxCell>
        <mxCell id="ubnaHx1fvpcuL760ZOfJ-2" value="Attrezzatura" style="rounded=0;whiteSpace=wrap;html=1;" vertex="1" parent="1">
          <mxGeometry x="1050" y="5" width="120" height="60" as="geometry" />
        </mxCell>
        <mxCell id="BdUQby077qZUEzd6wH9l-38" style="edgeStyle=orthogonalEdgeStyle;rounded=0;orthogonalLoop=1;jettySize=auto;html=1;exitX=0.5;exitY=0;exitDx=0;exitDy=0;entryX=0.5;entryY=1;entryDx=0;entryDy=0;" edge="1" parent="1" source="ubnaHx1fvpcuL760ZOfJ-3" target="BdUQby077qZUEzd6wH9l-35">
          <mxGeometry relative="1" as="geometry" />
        </mxCell>
        <mxCell id="BdUQby077qZUEzd6wH9l-39" style="edgeStyle=orthogonalEdgeStyle;rounded=0;orthogonalLoop=1;jettySize=auto;html=1;" edge="1" parent="1" source="ubnaHx1fvpcuL760ZOfJ-3">
          <mxGeometry relative="1" as="geometry">
            <mxPoint x="607.5" y="400" as="targetPoint" />
          </mxGeometry>
        </mxCell>
        <mxCell id="ubnaHx1fvpcuL760ZOfJ-3" value="Istruttore" style="rounded=0;whiteSpace=wrap;html=1;" vertex="1" parent="1">
          <mxGeometry x="547.5" y="480" width="120" height="60" as="geometry" />
        </mxCell>
        <mxCell id="BdUQby077qZUEzd6wH9l-11" style="edgeStyle=orthogonalEdgeStyle;rounded=0;orthogonalLoop=1;jettySize=auto;html=1;entryX=1;entryY=0.5;entryDx=0;entryDy=0;" edge="1" parent="1" source="ubnaHx1fvpcuL760ZOfJ-4" target="BdUQby077qZUEzd6wH9l-10">
          <mxGeometry relative="1" as="geometry" />
        </mxCell>
        <mxCell id="BdUQby077qZUEzd6wH9l-12" style="edgeStyle=orthogonalEdgeStyle;rounded=0;orthogonalLoop=1;jettySize=auto;html=1;entryX=1;entryY=0.5;entryDx=0;entryDy=0;" edge="1" parent="1" source="ubnaHx1fvpcuL760ZOfJ-4" target="BdUQby077qZUEzd6wH9l-10">
          <mxGeometry relative="1" as="geometry" />
        </mxCell>
        <mxCell id="BdUQby077qZUEzd6wH9l-13" style="edgeStyle=orthogonalEdgeStyle;rounded=0;orthogonalLoop=1;jettySize=auto;html=1;" edge="1" parent="1" source="ubnaHx1fvpcuL760ZOfJ-4">
          <mxGeometry relative="1" as="geometry">
            <mxPoint x="-90" y="465" as="targetPoint" />
          </mxGeometry>
        </mxCell>
        <mxCell id="BdUQby077qZUEzd6wH9l-21" style="edgeStyle=orthogonalEdgeStyle;rounded=0;orthogonalLoop=1;jettySize=auto;html=1;" edge="1" parent="1" source="ubnaHx1fvpcuL760ZOfJ-4">
          <mxGeometry relative="1" as="geometry">
            <mxPoint x="130" y="520" as="targetPoint" />
          </mxGeometry>
        </mxCell>
        <mxCell id="BdUQby077qZUEzd6wH9l-22" style="edgeStyle=orthogonalEdgeStyle;rounded=0;orthogonalLoop=1;jettySize=auto;html=1;entryX=0;entryY=0.5;entryDx=0;entryDy=0;" edge="1" parent="1" source="ubnaHx1fvpcuL760ZOfJ-4" target="ubnaHx1fvpcuL760ZOfJ-11">
          <mxGeometry relative="1" as="geometry" />
        </mxCell>
        <mxCell id="BdUQby077qZUEzd6wH9l-24" style="edgeStyle=orthogonalEdgeStyle;rounded=0;orthogonalLoop=1;jettySize=auto;html=1;entryX=0.5;entryY=1;entryDx=0;entryDy=0;" edge="1" parent="1" source="ubnaHx1fvpcuL760ZOfJ-4" target="BdUQby077qZUEzd6wH9l-23">
          <mxGeometry relative="1" as="geometry" />
        </mxCell>
        <mxCell id="BdUQby077qZUEzd6wH9l-25" style="edgeStyle=orthogonalEdgeStyle;rounded=0;orthogonalLoop=1;jettySize=auto;html=1;" edge="1" parent="1" source="ubnaHx1fvpcuL760ZOfJ-4">
          <mxGeometry relative="1" as="geometry">
            <mxPoint x="105" y="330" as="targetPoint" />
          </mxGeometry>
        </mxCell>
        <mxCell id="ubnaHx1fvpcuL760ZOfJ-4" value="Membro" style="rounded=0;whiteSpace=wrap;html=1;" vertex="1" parent="1">
          <mxGeometry x="45" y="435" width="120" height="60" as="geometry" />
        </mxCell>
        <mxCell id="BdUQby077qZUEzd6wH9l-28" style="edgeStyle=orthogonalEdgeStyle;rounded=0;orthogonalLoop=1;jettySize=auto;html=1;entryX=0.5;entryY=0;entryDx=0;entryDy=0;" edge="1" parent="1" source="ubnaHx1fvpcuL760ZOfJ-5" target="BdUQby077qZUEzd6wH9l-23">
          <mxGeometry relative="1" as="geometry" />
        </mxCell>
        <mxCell id="BdUQby077qZUEzd6wH9l-30" style="edgeStyle=orthogonalEdgeStyle;rounded=0;orthogonalLoop=1;jettySize=auto;html=1;entryX=0;entryY=0.5;entryDx=0;entryDy=0;" edge="1" parent="1" source="ubnaHx1fvpcuL760ZOfJ-5" target="BdUQby077qZUEzd6wH9l-29">
          <mxGeometry relative="1" as="geometry" />
        </mxCell>
        <mxCell id="ubnaHx1fvpcuL760ZOfJ-5" value="Prenotazine" style="rounded=0;whiteSpace=wrap;html=1;" vertex="1" parent="1">
          <mxGeometry x="45" y="3.75" width="120" height="60" as="geometry" />
        </mxCell>
        <mxCell id="ubnaHx1fvpcuL760ZOfJ-7" value="" style="ellipse;whiteSpace=wrap;html=1;aspect=fixed;strokeColor=#0a0a0a;fillColor=#000000;" vertex="1" parent="1">
          <mxGeometry x="135" y="505" width="20" height="20" as="geometry" />
        </mxCell>
        <mxCell id="ubnaHx1fvpcuL760ZOfJ-8" value="IDmembro" style="text;html=1;align=center;verticalAlign=middle;whiteSpace=wrap;rounded=0;" vertex="1" parent="1">
          <mxGeometry x="155" y="500" width="75" height="30" as="geometry" />
        </mxCell>
        <mxCell id="ubnaHx1fvpcuL760ZOfJ-11" value="" style="ellipse;whiteSpace=wrap;html=1;aspect=fixed;" vertex="1" parent="1">
          <mxGeometry x="135" y="535" width="20" height="20" as="geometry" />
        </mxCell>
        <mxCell id="ubnaHx1fvpcuL760ZOfJ-12" value="nome" style="text;html=1;align=center;verticalAlign=middle;whiteSpace=wrap;rounded=0;" vertex="1" parent="1">
          <mxGeometry x="155" y="530" width="60" height="30" as="geometry" />
        </mxCell>
        <mxCell id="ubnaHx1fvpcuL760ZOfJ-13" value="" style="ellipse;whiteSpace=wrap;html=1;aspect=fixed;" vertex="1" parent="1">
          <mxGeometry x="627.5" y="220" width="20" height="20" as="geometry" />
        </mxCell>
        <mxCell id="ubnaHx1fvpcuL760ZOfJ-14" value="num_partecipanti" style="text;html=1;align=center;verticalAlign=middle;whiteSpace=wrap;rounded=0;" vertex="1" parent="1">
          <mxGeometry x="652.5" y="215" width="100" height="30" as="geometry" />
        </mxCell>
        <mxCell id="ubnaHx1fvpcuL760ZOfJ-15" value="" style="ellipse;whiteSpace=wrap;html=1;aspect=fixed;fillColor=#050505;" vertex="1" parent="1">
          <mxGeometry x="125" y="71.25" width="20" height="20" as="geometry" />
        </mxCell>
        <mxCell id="ubnaHx1fvpcuL760ZOfJ-16" value="IDprenotazione" style="text;html=1;align=center;verticalAlign=middle;whiteSpace=wrap;rounded=0;" vertex="1" parent="1">
          <mxGeometry x="150" y="66.25" width="100" height="30" as="geometry" />
        </mxCell>
        <mxCell id="ubnaHx1fvpcuL760ZOfJ-17" value="" style="ellipse;whiteSpace=wrap;html=1;aspect=fixed;" vertex="1" parent="1">
          <mxGeometry x="125" y="101.25" width="20" height="20" as="geometry" />
        </mxCell>
        <mxCell id="ubnaHx1fvpcuL760ZOfJ-18" value="data" style="text;html=1;align=center;verticalAlign=middle;whiteSpace=wrap;rounded=0;" vertex="1" parent="1">
          <mxGeometry x="145" y="96.25" width="60" height="30" as="geometry" />
        </mxCell>
        <mxCell id="ubnaHx1fvpcuL760ZOfJ-19" value="" style="ellipse;whiteSpace=wrap;html=1;aspect=fixed;" vertex="1" parent="1">
          <mxGeometry x="125" y="131.25" width="20" height="20" as="geometry" />
        </mxCell>
        <mxCell id="ubnaHx1fvpcuL760ZOfJ-20" value="ora" style="text;html=1;align=center;verticalAlign=middle;whiteSpace=wrap;rounded=0;" vertex="1" parent="1">
          <mxGeometry x="145" y="126.25" width="60" height="30" as="geometry" />
        </mxCell>
        <mxCell id="ubnaHx1fvpcuL760ZOfJ-21" value="" style="ellipse;whiteSpace=wrap;html=1;aspect=fixed;fillColor=#0d0d0d;" vertex="1" parent="1">
          <mxGeometry x="627.5" y="75" width="20" height="20" as="geometry" />
        </mxCell>
        <mxCell id="ubnaHx1fvpcuL760ZOfJ-22" value="IDclasse" style="text;html=1;align=center;verticalAlign=middle;whiteSpace=wrap;rounded=0;" vertex="1" parent="1">
          <mxGeometry x="647.5" y="70" width="60" height="30" as="geometry" />
        </mxCell>
        <mxCell id="ubnaHx1fvpcuL760ZOfJ-23" value="" style="ellipse;whiteSpace=wrap;html=1;aspect=fixed;" vertex="1" parent="1">
          <mxGeometry x="627.5" y="105" width="20" height="20" as="geometry" />
        </mxCell>
        <mxCell id="ubnaHx1fvpcuL760ZOfJ-24" value="nome" style="text;html=1;align=center;verticalAlign=middle;whiteSpace=wrap;rounded=0;" vertex="1" parent="1">
          <mxGeometry x="647.5" y="100" width="60" height="30" as="geometry" />
        </mxCell>
        <mxCell id="ubnaHx1fvpcuL760ZOfJ-27" value="" style="ellipse;whiteSpace=wrap;html=1;aspect=fixed;" vertex="1" parent="1">
          <mxGeometry x="627.5" y="130" width="20" height="20" as="geometry" />
        </mxCell>
        <mxCell id="ubnaHx1fvpcuL760ZOfJ-28" value="descrizione" style="text;html=1;align=center;verticalAlign=middle;whiteSpace=wrap;rounded=0;" vertex="1" parent="1">
          <mxGeometry x="652.5" y="125" width="70" height="30" as="geometry" />
        </mxCell>
        <mxCell id="ubnaHx1fvpcuL760ZOfJ-29" value="" style="ellipse;whiteSpace=wrap;html=1;aspect=fixed;" vertex="1" parent="1">
          <mxGeometry x="627.5" y="160" width="20" height="20" as="geometry" />
        </mxCell>
        <mxCell id="ubnaHx1fvpcuL760ZOfJ-30" value="orario" style="text;html=1;align=center;verticalAlign=middle;whiteSpace=wrap;rounded=0;" vertex="1" parent="1">
          <mxGeometry x="647.5" y="155" width="60" height="30" as="geometry" />
        </mxCell>
        <mxCell id="ubnaHx1fvpcuL760ZOfJ-31" value="" style="ellipse;whiteSpace=wrap;html=1;aspect=fixed;" vertex="1" parent="1">
          <mxGeometry x="627.5" y="190" width="20" height="20" as="geometry" />
        </mxCell>
        <mxCell id="ubnaHx1fvpcuL760ZOfJ-32" value="giorno_settimana" style="text;html=1;align=center;verticalAlign=middle;whiteSpace=wrap;rounded=0;" vertex="1" parent="1">
          <mxGeometry x="652.5" y="185" width="100" height="30" as="geometry" />
        </mxCell>
        <mxCell id="ubnaHx1fvpcuL760ZOfJ-33" value="" style="ellipse;whiteSpace=wrap;html=1;aspect=fixed;" vertex="1" parent="1">
          <mxGeometry x="135" y="565" width="20" height="20" as="geometry" />
        </mxCell>
        <mxCell id="ubnaHx1fvpcuL760ZOfJ-34" value="cognome" style="text;html=1;align=center;verticalAlign=middle;whiteSpace=wrap;rounded=0;" vertex="1" parent="1">
          <mxGeometry x="162.5" y="560" width="60" height="30" as="geometry" />
        </mxCell>
        <mxCell id="ubnaHx1fvpcuL760ZOfJ-35" value="" style="ellipse;whiteSpace=wrap;html=1;aspect=fixed;" vertex="1" parent="1">
          <mxGeometry x="135" y="595" width="20" height="20" as="geometry" />
        </mxCell>
        <mxCell id="ubnaHx1fvpcuL760ZOfJ-36" value="data_nasc" style="text;html=1;align=center;verticalAlign=middle;whiteSpace=wrap;rounded=0;" vertex="1" parent="1">
          <mxGeometry x="162.5" y="590" width="60" height="30" as="geometry" />
        </mxCell>
        <mxCell id="ubnaHx1fvpcuL760ZOfJ-37" value="" style="ellipse;whiteSpace=wrap;html=1;aspect=fixed;" vertex="1" parent="1">
          <mxGeometry x="135" y="625" width="20" height="20" as="geometry" />
        </mxCell>
        <mxCell id="ubnaHx1fvpcuL760ZOfJ-38" value="sesso" style="text;html=1;align=center;verticalAlign=middle;whiteSpace=wrap;rounded=0;" vertex="1" parent="1">
          <mxGeometry x="155" y="620" width="60" height="30" as="geometry" />
        </mxCell>
        <mxCell id="ubnaHx1fvpcuL760ZOfJ-40" value="" style="ellipse;whiteSpace=wrap;html=1;aspect=fixed;fillColor=#0d0d0d;" vertex="1" parent="1">
          <mxGeometry x="135" y="650" width="20" height="20" as="geometry" />
        </mxCell>
        <mxCell id="ubnaHx1fvpcuL760ZOfJ-41" value="email" style="text;html=1;align=center;verticalAlign=middle;whiteSpace=wrap;rounded=0;" vertex="1" parent="1">
          <mxGeometry x="155" y="645" width="60" height="30" as="geometry" />
        </mxCell>
        <mxCell id="ubnaHx1fvpcuL760ZOfJ-42" value="" style="ellipse;whiteSpace=wrap;html=1;aspect=fixed;fillColor=#ffffff;" vertex="1" parent="1">
          <mxGeometry x="135" y="680" width="20" height="20" as="geometry" />
        </mxCell>
        <mxCell id="ubnaHx1fvpcuL760ZOfJ-43" value="telefono" style="text;html=1;align=center;verticalAlign=middle;whiteSpace=wrap;rounded=0;" vertex="1" parent="1">
          <mxGeometry x="162.5" y="675" width="60" height="30" as="geometry" />
        </mxCell>
        <mxCell id="ubnaHx1fvpcuL760ZOfJ-44" value="" style="ellipse;whiteSpace=wrap;html=1;aspect=fixed;" vertex="1" parent="1">
          <mxGeometry x="135" y="710" width="20" height="20" as="geometry" />
        </mxCell>
        <mxCell id="ubnaHx1fvpcuL760ZOfJ-45" value="data_inizio" style="text;html=1;align=center;verticalAlign=middle;whiteSpace=wrap;rounded=0;" vertex="1" parent="1">
          <mxGeometry x="155" y="705" width="75" height="30" as="geometry" />
        </mxCell>
        <mxCell id="ubnaHx1fvpcuL760ZOfJ-46" value="" style="ellipse;whiteSpace=wrap;html=1;aspect=fixed;" vertex="1" parent="1">
          <mxGeometry x="135" y="735" width="20" height="20" as="geometry" />
        </mxCell>
        <mxCell id="ubnaHx1fvpcuL760ZOfJ-47" value="tipo_abbonamento" style="text;html=1;align=center;verticalAlign=middle;whiteSpace=wrap;rounded=0;" vertex="1" parent="1">
          <mxGeometry x="155" y="730" width="115" height="30" as="geometry" />
        </mxCell>
        <mxCell id="ubnaHx1fvpcuL760ZOfJ-48" value="" style="ellipse;whiteSpace=wrap;html=1;aspect=fixed;fillColor=#080808;" vertex="1" parent="1">
          <mxGeometry x="637.5" y="550" width="20" height="20" as="geometry" />
        </mxCell>
        <mxCell id="ubnaHx1fvpcuL760ZOfJ-49" value="IDistruttore" style="text;html=1;align=center;verticalAlign=middle;whiteSpace=wrap;rounded=0;" vertex="1" parent="1">
          <mxGeometry x="657.5" y="545" width="70" height="30" as="geometry" />
        </mxCell>
        <mxCell id="ubnaHx1fvpcuL760ZOfJ-50" value="" style="ellipse;whiteSpace=wrap;html=1;aspect=fixed;" vertex="1" parent="1">
          <mxGeometry x="637.5" y="580" width="20" height="20" as="geometry" />
        </mxCell>
        <mxCell id="ubnaHx1fvpcuL760ZOfJ-51" value="nome" style="text;html=1;align=center;verticalAlign=middle;whiteSpace=wrap;rounded=0;" vertex="1" parent="1">
          <mxGeometry x="657.5" y="575" width="60" height="30" as="geometry" />
        </mxCell>
        <mxCell id="ubnaHx1fvpcuL760ZOfJ-52" value="" style="ellipse;whiteSpace=wrap;html=1;aspect=fixed;" vertex="1" parent="1">
          <mxGeometry x="637.5" y="610" width="20" height="20" as="geometry" />
        </mxCell>
        <mxCell id="ubnaHx1fvpcuL760ZOfJ-53" value="cognome" style="text;html=1;align=center;verticalAlign=middle;whiteSpace=wrap;rounded=0;" vertex="1" parent="1">
          <mxGeometry x="657.5" y="605" width="60" height="30" as="geometry" />
        </mxCell>
        <mxCell id="ubnaHx1fvpcuL760ZOfJ-54" value="" style="ellipse;whiteSpace=wrap;html=1;aspect=fixed;" vertex="1" parent="1">
          <mxGeometry x="637.5" y="640" width="20" height="20" as="geometry" />
        </mxCell>
        <mxCell id="ubnaHx1fvpcuL760ZOfJ-55" value="specializzazione" style="text;html=1;align=center;verticalAlign=middle;whiteSpace=wrap;rounded=0;" vertex="1" parent="1">
          <mxGeometry x="657.5" y="635" width="100" height="30" as="geometry" />
        </mxCell>
        <mxCell id="ubnaHx1fvpcuL760ZOfJ-56" value="" style="ellipse;whiteSpace=wrap;html=1;aspect=fixed;" vertex="1" parent="1">
          <mxGeometry x="637.5" y="665" width="20" height="20" as="geometry" />
        </mxCell>
        <mxCell id="ubnaHx1fvpcuL760ZOfJ-57" value="orari_lavoro" style="text;html=1;align=center;verticalAlign=middle;whiteSpace=wrap;rounded=0;" vertex="1" parent="1">
          <mxGeometry x="667.5" y="660" width="60" height="30" as="geometry" />
        </mxCell>
        <mxCell id="ubnaHx1fvpcuL760ZOfJ-58" value="" style="ellipse;whiteSpace=wrap;html=1;aspect=fixed;fillColor=#0d0d0d;" vertex="1" parent="1">
          <mxGeometry x="1120" y="75" width="20" height="20" as="geometry" />
        </mxCell>
        <mxCell id="ubnaHx1fvpcuL760ZOfJ-59" value="IDattrezzatura" style="text;html=1;align=center;verticalAlign=middle;whiteSpace=wrap;rounded=0;" vertex="1" parent="1">
          <mxGeometry x="1150" y="70" width="80" height="30" as="geometry" />
        </mxCell>
        <mxCell id="ubnaHx1fvpcuL760ZOfJ-60" value="" style="ellipse;whiteSpace=wrap;html=1;aspect=fixed;" vertex="1" parent="1">
          <mxGeometry x="1120" y="105" width="20" height="20" as="geometry" />
        </mxCell>
        <mxCell id="ubnaHx1fvpcuL760ZOfJ-61" value="descrizione" style="text;html=1;align=center;verticalAlign=middle;whiteSpace=wrap;rounded=0;" vertex="1" parent="1">
          <mxGeometry x="1140" y="100" width="80" height="30" as="geometry" />
        </mxCell>
        <mxCell id="ubnaHx1fvpcuL760ZOfJ-62" value="" style="ellipse;whiteSpace=wrap;html=1;aspect=fixed;" vertex="1" parent="1">
          <mxGeometry x="1120" y="135" width="20" height="20" as="geometry" />
        </mxCell>
        <mxCell id="ubnaHx1fvpcuL760ZOfJ-63" value="data_acqisto" style="text;html=1;align=center;verticalAlign=middle;whiteSpace=wrap;rounded=0;" vertex="1" parent="1">
          <mxGeometry x="1140" y="130" width="90" height="30" as="geometry" />
        </mxCell>
        <mxCell id="ubnaHx1fvpcuL760ZOfJ-64" value="" style="ellipse;whiteSpace=wrap;html=1;aspect=fixed;" vertex="1" parent="1">
          <mxGeometry x="1120" y="160" width="20" height="20" as="geometry" />
        </mxCell>
        <mxCell id="ubnaHx1fvpcuL760ZOfJ-65" value="stato" style="text;html=1;align=center;verticalAlign=middle;whiteSpace=wrap;rounded=0;" vertex="1" parent="1">
          <mxGeometry x="1140" y="155" width="60" height="30" as="geometry" />
        </mxCell>
        <mxCell id="ubnaHx1fvpcuL760ZOfJ-66" value="" style="ellipse;whiteSpace=wrap;html=1;aspect=fixed;" vertex="1" parent="1">
          <mxGeometry x="627.5" y="250" width="20" height="20" as="geometry" />
        </mxCell>
        <mxCell id="ubnaHx1fvpcuL760ZOfJ-67" value="tipo" style="text;html=1;align=center;verticalAlign=middle;whiteSpace=wrap;rounded=0;" vertex="1" parent="1">
          <mxGeometry x="637.5" y="245" width="60" height="30" as="geometry" />
        </mxCell>
        <mxCell id="BdUQby077qZUEzd6wH9l-15" style="edgeStyle=orthogonalEdgeStyle;rounded=0;orthogonalLoop=1;jettySize=auto;html=1;exitX=1;exitY=0.5;exitDx=0;exitDy=0;entryX=0;entryY=0.5;entryDx=0;entryDy=0;" edge="1" parent="1" source="BdUQby077qZUEzd6wH9l-1" target="BdUQby077qZUEzd6wH9l-10">
          <mxGeometry relative="1" as="geometry" />
        </mxCell>
        <mxCell id="BdUQby077qZUEzd6wH9l-18" style="edgeStyle=orthogonalEdgeStyle;rounded=0;orthogonalLoop=1;jettySize=auto;html=1;entryX=0;entryY=1;entryDx=0;entryDy=0;" edge="1" parent="1" source="BdUQby077qZUEzd6wH9l-1" target="BdUQby077qZUEzd6wH9l-5">
          <mxGeometry relative="1" as="geometry" />
        </mxCell>
        <mxCell id="BdUQby077qZUEzd6wH9l-19" style="edgeStyle=orthogonalEdgeStyle;rounded=0;orthogonalLoop=1;jettySize=auto;html=1;entryX=0;entryY=0.5;entryDx=0;entryDy=0;" edge="1" parent="1" source="BdUQby077qZUEzd6wH9l-1" target="BdUQby077qZUEzd6wH9l-3">
          <mxGeometry relative="1" as="geometry" />
        </mxCell>
        <mxCell id="BdUQby077qZUEzd6wH9l-20" style="edgeStyle=orthogonalEdgeStyle;rounded=0;orthogonalLoop=1;jettySize=auto;html=1;entryX=0;entryY=0.5;entryDx=0;entryDy=0;" edge="1" parent="1" source="BdUQby077qZUEzd6wH9l-1" target="BdUQby077qZUEzd6wH9l-7">
          <mxGeometry relative="1" as="geometry" />
        </mxCell>
        <mxCell id="BdUQby077qZUEzd6wH9l-1" value="Abbonamento" style="rounded=0;whiteSpace=wrap;html=1;" vertex="1" parent="1">
          <mxGeometry x="-450" y="435" width="120" height="60" as="geometry" />
        </mxCell>
        <mxCell id="BdUQby077qZUEzd6wH9l-3" value="" style="ellipse;whiteSpace=wrap;html=1;aspect=fixed;" vertex="1" parent="1">
          <mxGeometry x="-360" y="530" width="20" height="20" as="geometry" />
        </mxCell>
        <mxCell id="BdUQby077qZUEzd6wH9l-4" value="data_inizio" style="text;html=1;align=center;verticalAlign=middle;whiteSpace=wrap;rounded=0;" vertex="1" parent="1">
          <mxGeometry x="-335" y="525" width="75" height="30" as="geometry" />
        </mxCell>
        <mxCell id="BdUQby077qZUEzd6wH9l-5" value="" style="ellipse;whiteSpace=wrap;html=1;aspect=fixed;fillColor=#000000;" vertex="1" parent="1">
          <mxGeometry x="-360" y="500" width="20" height="20" as="geometry" />
        </mxCell>
        <mxCell id="BdUQby077qZUEzd6wH9l-6" value="IDabbonamento" style="text;html=1;align=center;verticalAlign=middle;whiteSpace=wrap;rounded=0;" vertex="1" parent="1">
          <mxGeometry x="-335" y="495" width="100" height="30" as="geometry" />
        </mxCell>
        <mxCell id="BdUQby077qZUEzd6wH9l-7" value="" style="ellipse;whiteSpace=wrap;html=1;aspect=fixed;" vertex="1" parent="1">
          <mxGeometry x="-360" y="560" width="20" height="20" as="geometry" />
        </mxCell>
        <mxCell id="BdUQby077qZUEzd6wH9l-8" value="data_fine" style="text;html=1;align=center;verticalAlign=middle;whiteSpace=wrap;rounded=0;" vertex="1" parent="1">
          <mxGeometry x="-330" y="555" width="60" height="30" as="geometry" />
        </mxCell>
        <mxCell id="BdUQby077qZUEzd6wH9l-10" value="effettuato" style="rhombus;whiteSpace=wrap;html=1;" vertex="1" parent="1">
          <mxGeometry x="-180" y="425" width="80" height="80" as="geometry" />
        </mxCell>
        <mxCell id="BdUQby077qZUEzd6wH9l-14" value="" style="endArrow=none;html=1;rounded=0;" edge="1" parent="1">
          <mxGeometry width="50" height="50" relative="1" as="geometry">
            <mxPoint x="10" y="480" as="sourcePoint" />
            <mxPoint x="10" y="450" as="targetPoint" />
          </mxGeometry>
        </mxCell>
        <mxCell id="BdUQby077qZUEzd6wH9l-23" value="effettua" style="rhombus;whiteSpace=wrap;html=1;" vertex="1" parent="1">
          <mxGeometry x="65" y="235" width="80" height="80" as="geometry" />
        </mxCell>
        <mxCell id="BdUQby077qZUEzd6wH9l-27" value="" style="endArrow=none;html=1;rounded=0;" edge="1" parent="1">
          <mxGeometry width="50" height="50" relative="1" as="geometry">
            <mxPoint x="90" y="420" as="sourcePoint" />
            <mxPoint x="120" y="420" as="targetPoint" />
          </mxGeometry>
        </mxCell>
        <mxCell id="BdUQby077qZUEzd6wH9l-29" value="riguarda" style="rhombus;whiteSpace=wrap;html=1;" vertex="1" parent="1">
          <mxGeometry x="320" y="-6.25" width="80" height="80" as="geometry" />
        </mxCell>
        <mxCell id="BdUQby077qZUEzd6wH9l-34" value="" style="endArrow=none;html=1;rounded=0;" edge="1" parent="1">
          <mxGeometry width="50" height="50" relative="1" as="geometry">
            <mxPoint x="520" y="50" as="sourcePoint" />
            <mxPoint x="520" y="20" as="targetPoint" />
          </mxGeometry>
        </mxCell>
        <mxCell id="BdUQby077qZUEzd6wH9l-35" value="ha" style="rhombus;whiteSpace=wrap;html=1;" vertex="1" parent="1">
          <mxGeometry x="567.5" y="310" width="80" height="80" as="geometry" />
        </mxCell>
        <mxCell id="BdUQby077qZUEzd6wH9l-40" value="" style="endArrow=none;html=1;rounded=0;" edge="1" parent="1">
          <mxGeometry width="50" height="50" relative="1" as="geometry">
            <mxPoint x="592.5" y="470" as="sourcePoint" />
            <mxPoint x="622.5" y="470" as="targetPoint" />
          </mxGeometry>
        </mxCell>
        <mxCell id="BdUQby077qZUEzd6wH9l-41" value="possiede" style="rhombus;whiteSpace=wrap;html=1;" vertex="1" parent="1">
          <mxGeometry x="830" y="-5" width="80" height="80" as="geometry" />
        </mxCell>
        <mxCell id="BdUQby077qZUEzd6wH9l-46" value="" style="endArrow=none;html=1;rounded=0;" edge="1" parent="1">
          <mxGeometry width="50" height="50" relative="1" as="geometry">
            <mxPoint x="690" y="50" as="sourcePoint" />
            <mxPoint x="690" y="20" as="targetPoint" />
          </mxGeometry>
        </mxCell>
      </root>
    </mxGraphModel>
  </diagram>
  <diagram id="QEc6IUJCnZu83a7Luu02" name="Pagina-2">
    <mxGraphModel dx="1276" dy="640" grid="0" gridSize="10" guides="1" tooltips="1" connect="1" arrows="1" fold="1" page="0" pageScale="1" pageWidth="827" pageHeight="1169" math="0" shadow="0">
      <root>
        <mxCell id="0" />
        <mxCell id="1" parent="0" />
      </root>
    </mxGraphModel>
  </diagram>
</mxfile>
